<svg xmlns="http://www.w3.org/2000/svg" xmlns:xlink="http://www.w3.org/1999/xlink" width="500" zoomAndPan="magnify" viewBox="0 0 375 374.999991" height="500" preserveAspectRatio="xMidYMid meet" version="1.0"><defs><clipPath id="bf3cb4e307"><path d="M 60.761719 179 L 314.261719 179 L 314.261719 247.136719 L 60.761719 247.136719 Z M 60.761719 179 " clip-rule="nonzero"/></clipPath><clipPath id="fa0670641b"><path d="M 175 237 L 187 237 L 187 247.136719 L 175 247.136719 Z M 175 237 " clip-rule="nonzero"/></clipPath><clipPath id="6d4f32c227"><path d="M 188 237 L 200 237 L 200 247.136719 L 188 247.136719 Z M 188 237 " clip-rule="nonzero"/></clipPath></defs><rect x="-37.5" width="450" fill="#ffffff" y="-37.499999" height="449.999989" fill-opacity="1"/><rect x="-37.5" width="450" fill="#ffffff" y="-37.499999" height="449.999989" fill-opacity="1"/><path fill="#f57f25" d="M 105.027344 154.195312 C 95.03125 154.195312 86.925781 162.296875 86.925781 172.292969 C 86.925781 178.929688 90.5 184.738281 95.828125 187.890625 L 95.828125 235.6875 L 114.222656 235.6875 L 114.222656 187.890625 C 119.550781 184.738281 123.121094 178.929688 123.121094 172.292969 C 123.121094 162.296875 115.019531 154.195312 105.027344 154.195312 Z M 116.097656 178.640625 L 105.027344 185.03125 L 93.949219 178.640625 L 93.949219 165.851562 L 105.027344 159.457031 L 116.097656 165.851562 L 116.097656 178.640625 " fill-opacity="1" fill-rule="nonzero"/><g clip-path="url(#bf3cb4e307)"><path fill="#f57f25" d="M 314.207031 247.136719 L 262.53125 247.136719 L 187.515625 206.957031 L 112.496094 247.136719 L 60.816406 247.136719 L 187.515625 179.285156 L 314.207031 247.136719 " fill-opacity="1" fill-rule="nonzero"/></g><path fill="#f57f25" d="M 178.921875 227.171875 C 180.765625 225.339844 183.304688 224.203125 186.109375 224.203125 L 186.109375 234.371094 L 175.941406 234.371094 C 175.941406 232.628906 176.378906 230.992188 177.148438 229.558594 C 177.621094 228.675781 178.214844 227.878906 178.921875 227.171875 " fill-opacity="1" fill-rule="nonzero"/><g clip-path="url(#fa0670641b)"><path fill="#f57f25" d="M 175.972656 237 L 186.109375 237 L 186.109375 247.136719 L 175.972656 247.136719 L 175.972656 237 " fill-opacity="1" fill-rule="nonzero"/></g><path fill="#f57f25" d="M 199.09375 234.371094 L 188.925781 234.371094 L 188.925781 224.203125 C 191.730469 224.203125 194.28125 225.339844 196.113281 227.171875 C 196.820312 227.878906 197.414062 228.675781 197.886719 229.558594 C 198.652344 230.992188 199.09375 232.628906 199.09375 234.371094 " fill-opacity="1" fill-rule="nonzero"/><g clip-path="url(#6d4f32c227)"><path fill="#f57f25" d="M 188.925781 237 L 199.058594 237 L 199.058594 247.136719 L 188.925781 247.136719 L 188.925781 237 " fill-opacity="1" fill-rule="nonzero"/></g><path fill="#f57f25" d="M 209.0625 168.113281 L 214.097656 168.113281 C 214.101562 168.347656 214.101562 168.585938 214.105469 168.832031 C 214.101562 169.699219 214.113281 170.636719 214.101562 171.632812 C 214.089844 172.628906 214.078125 173.675781 214.066406 174.761719 C 214.042969 175.847656 214.015625 176.96875 213.992188 178.109375 C 213.953125 179.246094 213.910156 180.40625 213.871094 181.5625 C 213.835938 182.71875 213.777344 183.878906 213.71875 185.015625 C 213.667969 186.15625 213.613281 187.277344 213.535156 188.363281 C 213.402344 190.53125 213.242188 192.558594 213.078125 194.292969 C 212.921875 196.03125 212.761719 197.476562 212.636719 198.488281 C 212.511719 199.503906 212.421875 200.082031 212.421875 200.082031 C 212.351562 200.582031 212.34375 201.125 212.421875 201.652344 C 212.855469 204.492188 215.5 206.445312 218.328125 206.011719 C 221.15625 205.578125 223.101562 202.921875 222.667969 200.082031 C 222.667969 200.082031 222.578125 199.503906 222.457031 198.488281 C 222.332031 197.476562 222.167969 196.03125 222.011719 194.292969 C 221.851562 192.558594 221.691406 190.53125 221.558594 188.363281 C 221.480469 187.277344 221.425781 186.15625 221.367188 185.015625 C 221.3125 183.878906 221.253906 182.71875 221.21875 181.5625 C 221.179688 180.40625 221.140625 179.246094 221.101562 178.109375 C 221.074219 176.96875 221.050781 175.847656 221.027344 174.761719 C 221.011719 173.675781 221 172.628906 220.988281 171.632812 C 220.976562 170.636719 220.988281 169.699219 220.988281 168.832031 C 220.988281 168.585938 220.988281 168.347656 220.992188 168.113281 L 226.039062 168.113281 C 230.523438 168.113281 234.160156 164.476562 234.160156 159.992188 L 234.160156 157.976562 L 200.9375 157.976562 L 200.9375 159.945312 C 200.9375 164.457031 204.578125 168.113281 209.0625 168.113281 " fill-opacity="1" fill-rule="nonzero"/><path fill="#f57f25" d="M 234.160156 134.886719 L 231.597656 134.886719 L 230.082031 140.726562 L 229.152344 134.886719 L 228.105469 134.886719 L 227.523438 137.808594 L 226.820312 134.886719 L 221 134.886719 L 220.070312 142.363281 L 219.253906 134.886719 L 217.546875 134.886719 L 216.457031 142.363281 L 215.878906 134.886719 L 212.152344 134.886719 L 211.453125 138.625 L 210.640625 134.886719 L 208.308594 134.886719 L 206.210938 145.398438 L 203.652344 134.886719 L 200.9375 134.886719 L 200.9375 155.910156 L 234.160156 155.910156 L 234.160156 134.886719 " fill-opacity="1" fill-rule="nonzero"/><path fill="#f57f25" d="M 188.1875 155.625 C 187.714844 155.152344 167.039062 134.722656 166.589844 149.769531 L 166.589844 211.285156 L 152.699219 211.285156 L 152.699219 151.339844 C 152.699219 150.082031 152.324219 148.847656 151.609375 147.808594 C 149.980469 145.445312 146.507812 142.277344 141.035156 146.421875 C 140.089844 147.140625 139.015625 147.558594 137.902344 147.628906 L 133.429688 147.894531 C 132.730469 147.941406 132.097656 147.421875 131.855469 146.613281 C 131.082031 144.035156 129.773438 138.1875 131.808594 132.988281 C 132.074219 132.3125 132.636719 131.878906 133.261719 131.882812 C 136.296875 131.914062 145.789062 131.882812 150.101562 130.261719 C 155.273438 128.316406 178.808594 127.890625 188.1875 155.625 " fill-opacity="1" fill-rule="nonzero"/><path fill="#f57f25" d="M 304.167969 148.050781 L 304.167969 155.117188 C 304.167969 158.253906 301.628906 160.792969 298.496094 160.792969 L 255.035156 160.792969 C 251.902344 160.792969 249.363281 158.253906 249.363281 155.117188 L 249.363281 148.070312 C 249.363281 144.9375 251.902344 142.394531 255.035156 142.394531 L 298.5 142.394531 C 301.632812 142.394531 304.167969 144.925781 304.167969 148.050781 " fill-opacity="1" fill-rule="nonzero"/><path fill="#f57f25" d="M 278.644531 203.964844 L 274.890625 203.964844 L 274.890625 191.558594 C 274.890625 190.734375 274.476562 189.964844 273.792969 189.507812 L 244.460938 169.875 C 242.59375 168.625 241.480469 166.542969 241.480469 164.296875 L 241.480469 155.132812 C 241.480469 152.140625 243.90625 149.714844 246.894531 149.714844 L 263.25 149.714844 L 263.25 153.46875 L 247.023438 153.46875 C 246.140625 153.46875 245.421875 154.191406 245.421875 155.074219 L 245.421875 164.230469 C 245.421875 165.203125 245.902344 166.105469 246.703125 166.648438 L 275.871094 186.3125 C 277.605469 187.484375 278.644531 189.4375 278.644531 191.539062 L 278.644531 203.964844 " fill-opacity="1" fill-rule="nonzero"/><path fill="#f57f25" d="M 276.863281 243.074219 C 273.699219 243.074219 271.136719 240.511719 271.136719 237.351562 L 271.136719 200.453125 C 271.136719 197.292969 273.699219 194.730469 276.863281 194.730469 C 280.023438 194.730469 282.585938 197.292969 282.585938 200.453125 L 282.585938 237.351562 C 282.585938 240.511719 280.023438 243.074219 276.863281 243.074219 " fill-opacity="1" fill-rule="nonzero"/></svg>