<svg xmlns="http://www.w3.org/2000/svg" xmlns:xlink="http://www.w3.org/1999/xlink" width="500" zoomAndPan="magnify" viewBox="0 0 375 374.999991" height="500" preserveAspectRatio="xMidYMid meet" version="1.0"><defs><g/><clipPath id="4933475a27"><path d="M 96 147 L 278.96875 147 L 278.96875 196.15625 L 96 196.15625 Z M 96 147 " clip-rule="nonzero"/></clipPath><clipPath id="2bea5dac95"><path d="M 179 189 L 187 189 L 187 196.15625 L 179 196.15625 Z M 179 189 " clip-rule="nonzero"/></clipPath><clipPath id="d7784d3269"><path d="M 188 189 L 196 189 L 196 196.15625 L 188 196.15625 Z M 188 189 " clip-rule="nonzero"/></clipPath></defs><g fill="#144279" fill-opacity="1"><g transform="translate(85.157764, 231.882026)"><g><path d="M 11.78125 -0.171875 C 11.28125 -0.0664062 10.640625 0.015625 9.859375 0.078125 C 9.085938 0.140625 8.359375 0.171875 7.671875 0.171875 C 5.710938 0.171875 4.269531 -0.0546875 3.34375 -0.515625 C 2.425781 -0.984375 1.816406 -1.75 1.515625 -2.8125 C 1.210938 -3.875 1.0625 -5.476562 1.0625 -7.625 C 1.0625 -9.757812 1.207031 -11.351562 1.5 -12.40625 C 1.800781 -13.46875 2.414062 -14.234375 3.34375 -14.703125 C 4.269531 -15.179688 5.710938 -15.421875 7.671875 -15.421875 C 8.347656 -15.421875 9.0625 -15.378906 9.8125 -15.296875 C 10.5625 -15.210938 11.191406 -15.113281 11.703125 -15 L 11.703125 -11.78125 C 10.128906 -11.914062 9.144531 -11.984375 8.75 -11.984375 C 7.6875 -11.984375 6.953125 -11.894531 6.546875 -11.71875 C 6.148438 -11.539062 5.90625 -11.1875 5.8125 -10.65625 C 5.71875 -10.125 5.671875 -9.113281 5.671875 -7.625 C 5.671875 -6.132812 5.71875 -5.117188 5.8125 -4.578125 C 5.90625 -4.046875 6.148438 -3.691406 6.546875 -3.515625 C 6.953125 -3.335938 7.6875 -3.25 8.75 -3.25 C 9.769531 -3.25 10.78125 -3.316406 11.78125 -3.453125 Z M 11.78125 -0.171875 "/></g></g></g><g fill="#144279" fill-opacity="1"><g transform="translate(97.811255, 231.882026)"><g><path d="M 6.3125 0.171875 C 4.570312 0.171875 3.320312 0.0078125 2.5625 -0.3125 C 1.800781 -0.644531 1.316406 -1.1875 1.109375 -1.9375 C 0.910156 -2.695312 0.8125 -3.9375 0.8125 -5.65625 C 0.8125 -7.363281 0.910156 -8.59375 1.109375 -9.34375 C 1.316406 -10.101562 1.800781 -10.648438 2.5625 -10.984375 C 3.320312 -11.316406 4.570312 -11.484375 6.3125 -11.484375 C 8.070312 -11.484375 9.332031 -11.316406 10.09375 -10.984375 C 10.851562 -10.648438 11.335938 -10.101562 11.546875 -9.34375 C 11.753906 -8.59375 11.859375 -7.363281 11.859375 -5.65625 C 11.859375 -3.9375 11.753906 -2.695312 11.546875 -1.9375 C 11.335938 -1.1875 10.851562 -0.644531 10.09375 -0.3125 C 9.332031 0.0078125 8.070312 0.171875 6.3125 0.171875 Z M 6.3125 -2.90625 C 6.789062 -2.90625 7.113281 -2.957031 7.28125 -3.0625 C 7.445312 -3.164062 7.550781 -3.382812 7.59375 -3.71875 C 7.644531 -4.0625 7.671875 -4.707031 7.671875 -5.65625 C 7.671875 -6.59375 7.644531 -7.234375 7.59375 -7.578125 C 7.550781 -7.921875 7.445312 -8.140625 7.28125 -8.234375 C 7.113281 -8.335938 6.789062 -8.390625 6.3125 -8.390625 C 5.84375 -8.390625 5.519531 -8.335938 5.34375 -8.234375 C 5.175781 -8.140625 5.070312 -7.925781 5.03125 -7.59375 C 5 -7.257812 4.984375 -6.613281 4.984375 -5.65625 C 4.984375 -4.6875 5 -4.035156 5.03125 -3.703125 C 5.070312 -3.378906 5.175781 -3.164062 5.34375 -3.0625 C 5.519531 -2.957031 5.84375 -2.90625 6.3125 -2.90625 Z M 6.3125 -2.90625 "/></g></g></g><g fill="#144279" fill-opacity="1"><g transform="translate(110.464747, 231.882026)"><g><path d="M 7.703125 -5.953125 C 7.703125 -6.679688 7.679688 -7.179688 7.640625 -7.453125 C 7.597656 -7.722656 7.503906 -7.894531 7.359375 -7.96875 C 7.210938 -8.050781 6.945312 -8.09375 6.5625 -8.09375 C 6.15625 -8.09375 5.875 -8.039062 5.71875 -7.9375 C 5.570312 -7.84375 5.472656 -7.65625 5.421875 -7.375 C 5.367188 -7.09375 5.34375 -6.613281 5.34375 -5.9375 L 5.34375 0 L 1.15625 0 L 1.15625 -11.296875 L 5.1875 -11.296875 L 5.265625 -10 L 5.46875 -10 C 6.0625 -10.988281 7.097656 -11.484375 8.578125 -11.484375 C 9.523438 -11.484375 10.238281 -11.316406 10.71875 -10.984375 C 11.195312 -10.648438 11.507812 -10.175781 11.65625 -9.5625 C 11.8125 -8.945312 11.890625 -8.113281 11.890625 -7.0625 L 11.890625 0 L 7.703125 0 Z M 7.703125 -5.953125 "/></g></g></g><g fill="#144279" fill-opacity="1"><g transform="translate(123.517122, 231.882026)"><g><path d="M 11.453125 -4.765625 L 4.921875 -4.765625 C 4.921875 -4.128906 4.972656 -3.691406 5.078125 -3.453125 C 5.179688 -3.222656 5.40625 -3.066406 5.75 -2.984375 C 6.09375 -2.910156 6.734375 -2.875 7.671875 -2.875 C 8.328125 -2.875 9.441406 -2.9375 11.015625 -3.0625 L 11.015625 -0.25 C 10.554688 -0.125 9.914062 -0.0234375 9.09375 0.046875 C 8.269531 0.128906 7.460938 0.171875 6.671875 0.171875 C 4.847656 0.171875 3.523438 -0.015625 2.703125 -0.390625 C 1.890625 -0.765625 1.367188 -1.332031 1.140625 -2.09375 C 0.921875 -2.851562 0.8125 -4.03125 0.8125 -5.625 C 0.8125 -7.207031 0.921875 -8.382812 1.140625 -9.15625 C 1.359375 -9.9375 1.847656 -10.519531 2.609375 -10.90625 C 3.367188 -11.289062 4.582031 -11.484375 6.25 -11.484375 C 7.9375 -11.484375 9.140625 -11.300781 9.859375 -10.9375 C 10.578125 -10.570312 11.019531 -10.019531 11.1875 -9.28125 C 11.363281 -8.539062 11.453125 -7.320312 11.453125 -5.625 Z M 6.25 -8.65625 C 5.832031 -8.65625 5.539062 -8.613281 5.375 -8.53125 C 5.207031 -8.457031 5.09375 -8.285156 5.03125 -8.015625 C 4.96875 -7.753906 4.929688 -7.289062 4.921875 -6.625 L 7.5625 -6.625 C 7.5625 -7.289062 7.53125 -7.757812 7.46875 -8.03125 C 7.40625 -8.300781 7.289062 -8.472656 7.125 -8.546875 C 6.957031 -8.617188 6.664062 -8.65625 6.25 -8.65625 Z M 6.25 -8.65625 "/></g></g></g><g fill="#144279" fill-opacity="1"><g transform="translate(135.860375, 231.882026)"><g><path d="M 9.484375 -0.21875 C 8.273438 0.0390625 7.070312 0.171875 5.875 0.171875 C 4.320312 0.171875 3.179688 -0.0507812 2.453125 -0.5 C 1.734375 -0.945312 1.28125 -1.554688 1.09375 -2.328125 C 0.90625 -3.109375 0.8125 -4.207031 0.8125 -5.625 C 0.8125 -7.039062 0.90625 -8.140625 1.09375 -8.921875 C 1.289062 -9.710938 1.75 -10.335938 2.46875 -10.796875 C 3.195312 -11.253906 4.332031 -11.484375 5.875 -11.484375 C 7.125 -11.484375 8.296875 -11.351562 9.390625 -11.09375 L 9.390625 -8.265625 C 8.617188 -8.347656 7.832031 -8.390625 7.03125 -8.390625 C 6.40625 -8.390625 5.957031 -8.320312 5.6875 -8.1875 C 5.425781 -8.0625 5.253906 -7.816406 5.171875 -7.453125 C 5.085938 -7.085938 5.046875 -6.488281 5.046875 -5.65625 C 5.046875 -4.789062 5.082031 -4.179688 5.15625 -3.828125 C 5.226562 -3.472656 5.398438 -3.226562 5.671875 -3.09375 C 5.941406 -2.96875 6.394531 -2.90625 7.03125 -2.90625 C 7.757812 -2.90625 8.578125 -2.957031 9.484375 -3.0625 Z M 9.484375 -0.21875 "/></g></g></g><g fill="#144279" fill-opacity="1"><g transform="translate(146.142719, 231.882026)"><g><path d="M 2.34375 0 L 2.34375 -8.21875 L 0.40625 -8.21875 L 0.40625 -11.296875 L 2.34375 -11.296875 L 2.34375 -14.578125 L 6.609375 -14.578125 L 6.609375 -11.296875 L 8.96875 -11.296875 L 8.96875 -8.21875 L 6.609375 -8.21875 L 6.609375 0 Z M 2.34375 0 "/></g></g></g><g fill="#144279" fill-opacity="1"><g transform="translate(155.516494, 231.882026)"><g><path d="M 3.875 0.171875 C 2.820312 0.171875 2.035156 -0.0976562 1.515625 -0.640625 C 0.992188 -1.191406 0.734375 -2.0625 0.734375 -3.25 C 0.734375 -4.144531 0.832031 -4.832031 1.03125 -5.3125 C 1.226562 -5.800781 1.582031 -6.148438 2.09375 -6.359375 C 2.613281 -6.578125 3.363281 -6.6875 4.34375 -6.6875 C 5.007812 -6.6875 5.960938 -6.660156 7.203125 -6.609375 L 7.203125 -7 C 7.203125 -7.46875 7.144531 -7.796875 7.03125 -7.984375 C 6.925781 -8.171875 6.710938 -8.285156 6.390625 -8.328125 C 6.078125 -8.367188 5.5 -8.390625 4.65625 -8.390625 C 3.664062 -8.390625 2.5625 -8.347656 1.34375 -8.265625 L 1.34375 -11.09375 C 2.820312 -11.351562 4.359375 -11.484375 5.953125 -11.484375 C 7.597656 -11.484375 8.800781 -11.3125 9.5625 -10.96875 C 10.332031 -10.625 10.828125 -10.132812 11.046875 -9.5 C 11.273438 -8.863281 11.390625 -7.941406 11.390625 -6.734375 L 11.390625 0 L 7.328125 0 L 7.25 -1.28125 L 7.046875 -1.28125 C 6.628906 -0.675781 6.171875 -0.28125 5.671875 -0.09375 C 5.179688 0.0820312 4.582031 0.171875 3.875 0.171875 Z M 5.84375 -2.65625 C 6.175781 -2.65625 6.429688 -2.691406 6.609375 -2.765625 C 6.796875 -2.835938 6.9375 -2.972656 7.03125 -3.171875 C 7.144531 -3.390625 7.203125 -3.757812 7.203125 -4.28125 L 7.203125 -4.78125 L 5.765625 -4.78125 C 5.410156 -4.78125 5.15625 -4.753906 5 -4.703125 C 4.851562 -4.648438 4.753906 -4.550781 4.703125 -4.40625 C 4.648438 -4.257812 4.625 -4.007812 4.625 -3.65625 C 4.625 -3.375 4.648438 -3.164062 4.703125 -3.03125 C 4.753906 -2.90625 4.859375 -2.8125 5.015625 -2.75 C 5.179688 -2.6875 5.457031 -2.65625 5.84375 -2.65625 Z M 5.84375 -2.65625 "/></g></g></g><g fill="#144279" fill-opacity="1"><g transform="translate(168.059183, 231.882026)"><g><path d="M 7.78125 0.171875 C 5.59375 0.171875 4.035156 -0.0507812 3.109375 -0.5 C 2.191406 -0.945312 1.617188 -1.660156 1.390625 -2.640625 C 1.171875 -3.628906 1.0625 -5.289062 1.0625 -7.625 C 1.0625 -9.957031 1.171875 -11.613281 1.390625 -12.59375 C 1.617188 -13.570312 2.191406 -14.285156 3.109375 -14.734375 C 4.035156 -15.191406 5.59375 -15.421875 7.78125 -15.421875 C 9.96875 -15.421875 11.519531 -15.191406 12.4375 -14.734375 C 13.363281 -14.285156 13.9375 -13.570312 14.15625 -12.59375 C 14.375 -11.613281 14.484375 -9.957031 14.484375 -7.625 C 14.484375 -5.289062 14.375 -3.628906 14.15625 -2.640625 C 13.9375 -1.660156 13.363281 -0.945312 12.4375 -0.5 C 11.519531 -0.0507812 9.96875 0.171875 7.78125 0.171875 Z M 7.78125 -3.25 C 8.53125 -3.25 9.035156 -3.316406 9.296875 -3.453125 C 9.554688 -3.597656 9.71875 -3.941406 9.78125 -4.484375 C 9.84375 -5.023438 9.875 -6.070312 9.875 -7.625 C 9.875 -9.175781 9.84375 -10.21875 9.78125 -10.75 C 9.71875 -11.289062 9.554688 -11.628906 9.296875 -11.765625 C 9.035156 -11.910156 8.53125 -11.984375 7.78125 -11.984375 C 7.019531 -11.984375 6.507812 -11.910156 6.25 -11.765625 C 6 -11.628906 5.835938 -11.296875 5.765625 -10.765625 C 5.703125 -10.234375 5.671875 -9.1875 5.671875 -7.625 C 5.671875 -6.050781 5.703125 -5 5.765625 -4.46875 C 5.835938 -3.9375 6 -3.597656 6.25 -3.453125 C 6.507812 -3.316406 7.019531 -3.25 7.78125 -3.25 Z M 7.78125 -3.25 "/></g></g></g><g fill="#144279" fill-opacity="1"><g transform="translate(183.615663, 231.882026)"><g><path d="M 2.375 -8.21875 L 0.421875 -8.21875 L 0.421875 -11.296875 L 2.375 -11.296875 L 2.375 -11.78125 C 2.375 -13.332031 2.539062 -14.414062 2.875 -15.03125 C 3.207031 -15.65625 3.800781 -16.046875 4.65625 -16.203125 C 5.519531 -16.359375 7.039062 -16.4375 9.21875 -16.4375 L 9.21875 -13.640625 C 8.34375 -13.640625 7.738281 -13.613281 7.40625 -13.5625 C 7.070312 -13.519531 6.859375 -13.410156 6.765625 -13.234375 C 6.671875 -13.066406 6.625 -12.753906 6.625 -12.296875 L 6.625 -11.296875 L 9.21875 -11.296875 L 9.21875 -8.21875 L 6.625 -8.21875 L 6.625 0 L 2.375 0 Z M 2.375 -8.21875 "/></g></g></g><g fill="#144279" fill-opacity="1"><g transform="translate(193.366166, 231.882026)"><g><path d="M 1.15625 -13.3125 L 1.15625 -16.46875 L 5.421875 -16.46875 L 5.421875 -13.3125 Z M 1.15625 0 L 1.15625 -11.296875 L 5.40625 -11.296875 L 5.40625 0 Z M 1.15625 0 "/></g></g></g><g fill="#144279" fill-opacity="1"><g transform="translate(199.925598, 231.882026)"><g><path d="M 9.484375 -0.21875 C 8.273438 0.0390625 7.070312 0.171875 5.875 0.171875 C 4.320312 0.171875 3.179688 -0.0507812 2.453125 -0.5 C 1.734375 -0.945312 1.28125 -1.554688 1.09375 -2.328125 C 0.90625 -3.109375 0.8125 -4.207031 0.8125 -5.625 C 0.8125 -7.039062 0.90625 -8.140625 1.09375 -8.921875 C 1.289062 -9.710938 1.75 -10.335938 2.46875 -10.796875 C 3.195312 -11.253906 4.332031 -11.484375 5.875 -11.484375 C 7.125 -11.484375 8.296875 -11.351562 9.390625 -11.09375 L 9.390625 -8.265625 C 8.617188 -8.347656 7.832031 -8.390625 7.03125 -8.390625 C 6.40625 -8.390625 5.957031 -8.320312 5.6875 -8.1875 C 5.425781 -8.0625 5.253906 -7.816406 5.171875 -7.453125 C 5.085938 -7.085938 5.046875 -6.488281 5.046875 -5.65625 C 5.046875 -4.789062 5.082031 -4.179688 5.15625 -3.828125 C 5.226562 -3.472656 5.398438 -3.226562 5.671875 -3.09375 C 5.941406 -2.96875 6.394531 -2.90625 7.03125 -2.90625 C 7.757812 -2.90625 8.578125 -2.957031 9.484375 -3.0625 Z M 9.484375 -0.21875 "/></g></g></g><g fill="#144279" fill-opacity="1"><g transform="translate(210.207942, 231.882026)"><g><path d="M 1.15625 -13.3125 L 1.15625 -16.46875 L 5.421875 -16.46875 L 5.421875 -13.3125 Z M 1.15625 0 L 1.15625 -11.296875 L 5.40625 -11.296875 L 5.40625 0 Z M 1.15625 0 "/></g></g></g><g fill="#144279" fill-opacity="1"><g transform="translate(216.767375, 231.882026)"><g><path d="M 6.3125 0.171875 C 4.570312 0.171875 3.320312 0.0078125 2.5625 -0.3125 C 1.800781 -0.644531 1.316406 -1.1875 1.109375 -1.9375 C 0.910156 -2.695312 0.8125 -3.9375 0.8125 -5.65625 C 0.8125 -7.363281 0.910156 -8.59375 1.109375 -9.34375 C 1.316406 -10.101562 1.800781 -10.648438 2.5625 -10.984375 C 3.320312 -11.316406 4.570312 -11.484375 6.3125 -11.484375 C 8.070312 -11.484375 9.332031 -11.316406 10.09375 -10.984375 C 10.851562 -10.648438 11.335938 -10.101562 11.546875 -9.34375 C 11.753906 -8.59375 11.859375 -7.363281 11.859375 -5.65625 C 11.859375 -3.9375 11.753906 -2.695312 11.546875 -1.9375 C 11.335938 -1.1875 10.851562 -0.644531 10.09375 -0.3125 C 9.332031 0.0078125 8.070312 0.171875 6.3125 0.171875 Z M 6.3125 -2.90625 C 6.789062 -2.90625 7.113281 -2.957031 7.28125 -3.0625 C 7.445312 -3.164062 7.550781 -3.382812 7.59375 -3.71875 C 7.644531 -4.0625 7.671875 -4.707031 7.671875 -5.65625 C 7.671875 -6.59375 7.644531 -7.234375 7.59375 -7.578125 C 7.550781 -7.921875 7.445312 -8.140625 7.28125 -8.234375 C 7.113281 -8.335938 6.789062 -8.390625 6.3125 -8.390625 C 5.84375 -8.390625 5.519531 -8.335938 5.34375 -8.234375 C 5.175781 -8.140625 5.070312 -7.925781 5.03125 -7.59375 C 5 -7.257812 4.984375 -6.613281 4.984375 -5.65625 C 4.984375 -4.6875 5 -4.035156 5.03125 -3.703125 C 5.070312 -3.378906 5.175781 -3.164062 5.34375 -3.0625 C 5.519531 -2.957031 5.84375 -2.90625 6.3125 -2.90625 Z M 6.3125 -2.90625 "/></g></g></g><g fill="#144279" fill-opacity="1"><g transform="translate(229.420866, 231.882026)"><g><path d="M 5.8125 0.171875 C 5.050781 0.171875 4.226562 0.140625 3.34375 0.078125 C 2.457031 0.0234375 1.695312 -0.046875 1.0625 -0.140625 L 1.0625 -2.953125 C 2.425781 -2.828125 3.519531 -2.765625 4.34375 -2.765625 C 5.082031 -2.765625 5.59375 -2.78125 5.875 -2.8125 C 6.164062 -2.84375 6.347656 -2.898438 6.421875 -2.984375 C 6.492188 -3.078125 6.53125 -3.234375 6.53125 -3.453125 C 6.53125 -3.617188 6.507812 -3.734375 6.46875 -3.796875 C 6.425781 -3.867188 6.332031 -3.921875 6.1875 -3.953125 C 6.050781 -3.992188 5.789062 -4.035156 5.40625 -4.078125 L 2.765625 -4.40625 C 1.921875 -4.53125 1.363281 -4.875 1.09375 -5.4375 C 0.832031 -6.007812 0.703125 -6.867188 0.703125 -8.015625 C 0.703125 -9.003906 0.90625 -9.75 1.3125 -10.25 C 1.71875 -10.757812 2.253906 -11.09375 2.921875 -11.25 C 3.597656 -11.40625 4.46875 -11.484375 5.53125 -11.484375 C 6.289062 -11.484375 7.066406 -11.453125 7.859375 -11.390625 C 8.660156 -11.328125 9.296875 -11.253906 9.765625 -11.171875 L 9.765625 -8.359375 C 8.492188 -8.472656 7.460938 -8.53125 6.671875 -8.53125 C 5.992188 -8.53125 5.515625 -8.519531 5.234375 -8.5 C 4.960938 -8.476562 4.78125 -8.425781 4.6875 -8.34375 C 4.601562 -8.257812 4.5625 -8.125 4.5625 -7.9375 C 4.5625 -7.757812 4.578125 -7.632812 4.609375 -7.5625 C 4.640625 -7.5 4.71875 -7.445312 4.84375 -7.40625 C 4.976562 -7.375 5.207031 -7.335938 5.53125 -7.296875 L 7.96875 -7 C 8.53125 -6.925781 8.976562 -6.796875 9.3125 -6.609375 C 9.644531 -6.429688 9.90625 -6.097656 10.09375 -5.609375 C 10.289062 -5.128906 10.390625 -4.441406 10.390625 -3.546875 C 10.390625 -2.453125 10.195312 -1.632812 9.8125 -1.09375 C 9.425781 -0.550781 8.921875 -0.203125 8.296875 -0.046875 C 7.671875 0.0976562 6.84375 0.171875 5.8125 0.171875 Z M 5.8125 0.171875 "/></g></g></g><g fill="#144279" fill-opacity="1"><g transform="translate(240.523145, 231.882026)"><g><path d="M 1.421875 0 L 1.421875 -3.5625 L 5.765625 -3.5625 L 5.765625 0 Z M 1.421875 0 "/></g></g></g><g fill="#144279" fill-opacity="1"><g transform="translate(247.703065, 231.882026)"><g><path d="M 9.484375 -0.21875 C 8.273438 0.0390625 7.070312 0.171875 5.875 0.171875 C 4.320312 0.171875 3.179688 -0.0507812 2.453125 -0.5 C 1.734375 -0.945312 1.28125 -1.554688 1.09375 -2.328125 C 0.90625 -3.109375 0.8125 -4.207031 0.8125 -5.625 C 0.8125 -7.039062 0.90625 -8.140625 1.09375 -8.921875 C 1.289062 -9.710938 1.75 -10.335938 2.46875 -10.796875 C 3.195312 -11.253906 4.332031 -11.484375 5.875 -11.484375 C 7.125 -11.484375 8.296875 -11.351562 9.390625 -11.09375 L 9.390625 -8.265625 C 8.617188 -8.347656 7.832031 -8.390625 7.03125 -8.390625 C 6.40625 -8.390625 5.957031 -8.320312 5.6875 -8.1875 C 5.425781 -8.0625 5.253906 -7.816406 5.171875 -7.453125 C 5.085938 -7.085938 5.046875 -6.488281 5.046875 -5.65625 C 5.046875 -4.789062 5.082031 -4.179688 5.15625 -3.828125 C 5.226562 -3.472656 5.398438 -3.226562 5.671875 -3.09375 C 5.941406 -2.96875 6.394531 -2.90625 7.03125 -2.90625 C 7.757812 -2.90625 8.578125 -2.957031 9.484375 -3.0625 Z M 9.484375 -0.21875 "/></g></g></g><g fill="#144279" fill-opacity="1"><g transform="translate(257.985409, 231.882026)"><g><path d="M 6.3125 0.171875 C 4.570312 0.171875 3.320312 0.0078125 2.5625 -0.3125 C 1.800781 -0.644531 1.316406 -1.1875 1.109375 -1.9375 C 0.910156 -2.695312 0.8125 -3.9375 0.8125 -5.65625 C 0.8125 -7.363281 0.910156 -8.59375 1.109375 -9.34375 C 1.316406 -10.101562 1.800781 -10.648438 2.5625 -10.984375 C 3.320312 -11.316406 4.570312 -11.484375 6.3125 -11.484375 C 8.070312 -11.484375 9.332031 -11.316406 10.09375 -10.984375 C 10.851562 -10.648438 11.335938 -10.101562 11.546875 -9.34375 C 11.753906 -8.59375 11.859375 -7.363281 11.859375 -5.65625 C 11.859375 -3.9375 11.753906 -2.695312 11.546875 -1.9375 C 11.335938 -1.1875 10.851562 -0.644531 10.09375 -0.3125 C 9.332031 0.0078125 8.070312 0.171875 6.3125 0.171875 Z M 6.3125 -2.90625 C 6.789062 -2.90625 7.113281 -2.957031 7.28125 -3.0625 C 7.445312 -3.164062 7.550781 -3.382812 7.59375 -3.71875 C 7.644531 -4.0625 7.671875 -4.707031 7.671875 -5.65625 C 7.671875 -6.59375 7.644531 -7.234375 7.59375 -7.578125 C 7.550781 -7.921875 7.445312 -8.140625 7.28125 -8.234375 C 7.113281 -8.335938 6.789062 -8.390625 6.3125 -8.390625 C 5.84375 -8.390625 5.519531 -8.335938 5.34375 -8.234375 C 5.175781 -8.140625 5.070312 -7.925781 5.03125 -7.59375 C 5 -7.257812 4.984375 -6.613281 4.984375 -5.65625 C 4.984375 -4.6875 5 -4.035156 5.03125 -3.703125 C 5.070312 -3.378906 5.175781 -3.164062 5.34375 -3.0625 C 5.519531 -2.957031 5.84375 -2.90625 6.3125 -2.90625 Z M 6.3125 -2.90625 "/></g></g></g><g fill="#144279" fill-opacity="1"><g transform="translate(270.638901, 231.882026)"><g><path d="M 13.84375 -5.953125 C 13.84375 -6.679688 13.820312 -7.179688 13.78125 -7.453125 C 13.738281 -7.722656 13.648438 -7.894531 13.515625 -7.96875 C 13.378906 -8.050781 13.144531 -8.09375 12.8125 -8.09375 C 12.4375 -8.09375 12.175781 -8.046875 12.03125 -7.953125 C 11.882812 -7.867188 11.785156 -7.6875 11.734375 -7.40625 C 11.691406 -7.125 11.671875 -6.632812 11.671875 -5.9375 L 11.671875 0 L 7.515625 0 L 7.515625 -5.953125 C 7.515625 -6.679688 7.488281 -7.179688 7.4375 -7.453125 C 7.394531 -7.722656 7.304688 -7.894531 7.171875 -7.96875 C 7.046875 -8.050781 6.8125 -8.09375 6.46875 -8.09375 C 6.101562 -8.09375 5.84375 -8.046875 5.6875 -7.953125 C 5.539062 -7.867188 5.445312 -7.6875 5.40625 -7.40625 C 5.363281 -7.125 5.34375 -6.632812 5.34375 -5.9375 L 5.34375 0 L 1.15625 0 L 1.15625 -11.296875 L 5.1875 -11.296875 L 5.265625 -10 L 5.46875 -10 C 6.0625 -10.988281 7.082031 -11.484375 8.53125 -11.484375 C 9.375 -11.484375 10.023438 -11.363281 10.484375 -11.125 C 10.941406 -10.882812 11.273438 -10.507812 11.484375 -10 L 11.703125 -10 C 12.285156 -10.988281 13.3125 -11.484375 14.78125 -11.484375 C 15.675781 -11.484375 16.359375 -11.316406 16.828125 -10.984375 C 17.304688 -10.648438 17.625 -10.171875 17.78125 -9.546875 C 17.945312 -8.929688 18.03125 -8.101562 18.03125 -7.0625 L 18.03125 0 L 13.84375 0 Z M 13.84375 -5.953125 "/></g></g></g><g fill="#e4863f" fill-opacity="1"><g transform="translate(110.125664, 261.634056)"><g><path d="M 3.421875 0.109375 C 2.828125 0.109375 2.253906 0.0234375 1.703125 -0.140625 C 1.148438 -0.304688 0.710938 -0.53125 0.390625 -0.8125 L 0.875 -1.921875 C 1.195312 -1.671875 1.585938 -1.46875 2.046875 -1.3125 C 2.503906 -1.15625 2.960938 -1.078125 3.421875 -1.078125 C 3.992188 -1.078125 4.421875 -1.164062 4.703125 -1.34375 C 4.992188 -1.53125 5.140625 -1.773438 5.140625 -2.078125 C 5.140625 -2.296875 5.054688 -2.476562 4.890625 -2.625 C 4.734375 -2.769531 4.535156 -2.878906 4.296875 -2.953125 C 4.054688 -3.035156 3.726562 -3.128906 3.3125 -3.234375 C 2.71875 -3.378906 2.238281 -3.519531 1.875 -3.65625 C 1.507812 -3.789062 1.195312 -4.007812 0.9375 -4.3125 C 0.675781 -4.613281 0.546875 -5.015625 0.546875 -5.515625 C 0.546875 -5.941406 0.660156 -6.328125 0.890625 -6.671875 C 1.128906 -7.023438 1.476562 -7.304688 1.9375 -7.515625 C 2.40625 -7.722656 2.976562 -7.828125 3.65625 -7.828125 C 4.125 -7.828125 4.585938 -7.765625 5.046875 -7.640625 C 5.503906 -7.523438 5.894531 -7.359375 6.21875 -7.140625 L 5.765625 -6.03125 C 5.429688 -6.226562 5.078125 -6.375 4.703125 -6.46875 C 4.335938 -6.570312 3.984375 -6.625 3.640625 -6.625 C 3.078125 -6.625 2.65625 -6.53125 2.375 -6.34375 C 2.101562 -6.15625 1.96875 -5.898438 1.96875 -5.578125 C 1.96875 -5.359375 2.046875 -5.175781 2.203125 -5.03125 C 2.367188 -4.894531 2.570312 -4.785156 2.8125 -4.703125 C 3.050781 -4.628906 3.378906 -4.539062 3.796875 -4.4375 C 4.367188 -4.300781 4.835938 -4.160156 5.203125 -4.015625 C 5.578125 -3.878906 5.894531 -3.664062 6.15625 -3.375 C 6.414062 -3.082031 6.546875 -2.6875 6.546875 -2.1875 C 6.546875 -1.757812 6.425781 -1.367188 6.1875 -1.015625 C 5.957031 -0.671875 5.609375 -0.394531 5.140625 -0.1875 C 4.671875 0.0078125 4.097656 0.109375 3.421875 0.109375 Z M 3.421875 0.109375 "/></g></g></g><g fill="#e4863f" fill-opacity="1"><g transform="translate(125.857905, 261.634056)"><g><path d="M 4.640625 0.109375 C 3.847656 0.109375 3.132812 -0.0625 2.5 -0.40625 C 1.875 -0.75 1.378906 -1.222656 1.015625 -1.828125 C 0.660156 -2.429688 0.484375 -3.109375 0.484375 -3.859375 C 0.484375 -4.609375 0.660156 -5.285156 1.015625 -5.890625 C 1.378906 -6.492188 1.875 -6.96875 2.5 -7.3125 C 3.132812 -7.65625 3.847656 -7.828125 4.640625 -7.828125 C 5.421875 -7.828125 6.128906 -7.65625 6.765625 -7.3125 C 7.398438 -6.96875 7.894531 -6.492188 8.25 -5.890625 C 8.613281 -5.285156 8.796875 -4.609375 8.796875 -3.859375 C 8.796875 -3.097656 8.613281 -2.414062 8.25 -1.8125 C 7.894531 -1.21875 7.398438 -0.75 6.765625 -0.40625 C 6.128906 -0.0625 5.421875 0.109375 4.640625 0.109375 Z M 4.640625 -1.140625 C 5.148438 -1.140625 5.609375 -1.253906 6.015625 -1.484375 C 6.429688 -1.722656 6.753906 -2.046875 6.984375 -2.453125 C 7.222656 -2.867188 7.34375 -3.335938 7.34375 -3.859375 C 7.34375 -4.367188 7.222656 -4.832031 6.984375 -5.25 C 6.753906 -5.664062 6.429688 -5.988281 6.015625 -6.21875 C 5.609375 -6.445312 5.148438 -6.5625 4.640625 -6.5625 C 4.117188 -6.5625 3.648438 -6.445312 3.234375 -6.21875 C 2.828125 -5.988281 2.503906 -5.664062 2.265625 -5.25 C 2.035156 -4.832031 1.921875 -4.367188 1.921875 -3.859375 C 1.921875 -3.335938 2.035156 -2.867188 2.265625 -2.453125 C 2.503906 -2.046875 2.828125 -1.722656 3.234375 -1.484375 C 3.648438 -1.253906 4.117188 -1.140625 4.640625 -1.140625 Z M 4.640625 -1.140625 "/></g></g></g><g fill="#e4863f" fill-opacity="1"><g transform="translate(143.933964, 261.634056)"><g><path d="M 1.03125 -7.71875 L 2.46875 -7.71875 L 2.46875 -1.21875 L 6.5 -1.21875 L 6.5 0 L 1.03125 0 Z M 1.03125 -7.71875 "/></g></g></g><g fill="#e4863f" fill-opacity="1"><g transform="translate(159.336091, 261.634056)"><g><path d="M 4.34375 0.109375 C 3.28125 0.109375 2.453125 -0.1875 1.859375 -0.78125 C 1.265625 -1.382812 0.96875 -2.242188 0.96875 -3.359375 L 0.96875 -7.71875 L 2.40625 -7.71875 L 2.40625 -3.421875 C 2.40625 -1.898438 3.054688 -1.140625 4.359375 -1.140625 C 5.660156 -1.140625 6.3125 -1.898438 6.3125 -3.421875 L 6.3125 -7.71875 L 7.71875 -7.71875 L 7.71875 -3.359375 C 7.71875 -2.242188 7.421875 -1.382812 6.828125 -0.78125 C 6.242188 -0.1875 5.414062 0.109375 4.34375 0.109375 Z M 4.34375 0.109375 "/></g></g></g><g fill="#e4863f" fill-opacity="1"><g transform="translate(176.828945, 261.634056)"><g><path d="M 4.609375 0.109375 C 3.828125 0.109375 3.117188 -0.0625 2.484375 -0.40625 C 1.859375 -0.75 1.367188 -1.21875 1.015625 -1.8125 C 0.660156 -2.414062 0.484375 -3.097656 0.484375 -3.859375 C 0.484375 -4.609375 0.660156 -5.285156 1.015625 -5.890625 C 1.378906 -6.492188 1.875 -6.96875 2.5 -7.3125 C 3.132812 -7.65625 3.835938 -7.828125 4.609375 -7.828125 C 5.242188 -7.828125 5.820312 -7.710938 6.34375 -7.484375 C 6.863281 -7.265625 7.304688 -6.945312 7.671875 -6.53125 L 6.734375 -5.65625 C 6.179688 -6.257812 5.5 -6.5625 4.6875 -6.5625 C 4.15625 -6.5625 3.675781 -6.445312 3.25 -6.21875 C 2.832031 -5.988281 2.503906 -5.664062 2.265625 -5.25 C 2.035156 -4.84375 1.921875 -4.378906 1.921875 -3.859375 C 1.921875 -3.335938 2.035156 -2.867188 2.265625 -2.453125 C 2.503906 -2.046875 2.832031 -1.722656 3.25 -1.484375 C 3.675781 -1.253906 4.15625 -1.140625 4.6875 -1.140625 C 5.5 -1.140625 6.179688 -1.445312 6.734375 -2.0625 L 7.671875 -1.171875 C 7.304688 -0.753906 6.859375 -0.4375 6.328125 -0.21875 C 5.804688 0 5.234375 0.109375 4.609375 0.109375 Z M 4.609375 0.109375 "/></g></g></g><g fill="#e4863f" fill-opacity="1"><g transform="translate(193.63956, 261.634056)"><g><path d="M 1.03125 -7.71875 L 2.46875 -7.71875 L 2.46875 0 L 1.03125 0 Z M 1.03125 -7.71875 "/></g></g></g><g fill="#e4863f" fill-opacity="1"><g transform="translate(205.9606, 261.634056)"><g><path d="M 4.640625 0.109375 C 3.847656 0.109375 3.132812 -0.0625 2.5 -0.40625 C 1.875 -0.75 1.378906 -1.222656 1.015625 -1.828125 C 0.660156 -2.429688 0.484375 -3.109375 0.484375 -3.859375 C 0.484375 -4.609375 0.660156 -5.285156 1.015625 -5.890625 C 1.378906 -6.492188 1.875 -6.96875 2.5 -7.3125 C 3.132812 -7.65625 3.847656 -7.828125 4.640625 -7.828125 C 5.421875 -7.828125 6.128906 -7.65625 6.765625 -7.3125 C 7.398438 -6.96875 7.894531 -6.492188 8.25 -5.890625 C 8.613281 -5.285156 8.796875 -4.609375 8.796875 -3.859375 C 8.796875 -3.097656 8.613281 -2.414062 8.25 -1.8125 C 7.894531 -1.21875 7.398438 -0.75 6.765625 -0.40625 C 6.128906 -0.0625 5.421875 0.109375 4.640625 0.109375 Z M 4.640625 -1.140625 C 5.148438 -1.140625 5.609375 -1.253906 6.015625 -1.484375 C 6.429688 -1.722656 6.753906 -2.046875 6.984375 -2.453125 C 7.222656 -2.867188 7.34375 -3.335938 7.34375 -3.859375 C 7.34375 -4.367188 7.222656 -4.832031 6.984375 -5.25 C 6.753906 -5.664062 6.429688 -5.988281 6.015625 -6.21875 C 5.609375 -6.445312 5.148438 -6.5625 4.640625 -6.5625 C 4.117188 -6.5625 3.648438 -6.445312 3.234375 -6.21875 C 2.828125 -5.988281 2.503906 -5.664062 2.265625 -5.25 C 2.035156 -4.832031 1.921875 -4.367188 1.921875 -3.859375 C 1.921875 -3.335938 2.035156 -2.867188 2.265625 -2.453125 C 2.503906 -2.046875 2.828125 -1.722656 3.234375 -1.484375 C 3.648438 -1.253906 4.117188 -1.140625 4.640625 -1.140625 Z M 4.640625 -1.140625 "/></g></g></g><g fill="#e4863f" fill-opacity="1"><g transform="translate(224.036656, 261.634056)"><g><path d="M 7.890625 -7.71875 L 7.890625 0 L 6.703125 0 L 2.453125 -5.21875 L 2.453125 0 L 1.03125 0 L 1.03125 -7.71875 L 2.21875 -7.71875 L 6.46875 -2.484375 L 6.46875 -7.71875 Z M 7.890625 -7.71875 "/></g></g></g><g fill="#e4863f" fill-opacity="1"><g transform="translate(241.760589, 261.634056)"><g><path d="M 6.8125 -1.203125 L 6.8125 0 L 1.03125 0 L 1.03125 -7.71875 L 6.671875 -7.71875 L 6.671875 -6.515625 L 2.46875 -6.515625 L 2.46875 -4.5 L 6.1875 -4.5 L 6.1875 -3.328125 L 2.46875 -3.328125 L 2.46875 -1.203125 Z M 6.8125 -1.203125 "/></g></g></g><g fill="#e4863f" fill-opacity="1"><g transform="translate(257.943988, 261.634056)"><g><path d="M 3.421875 0.109375 C 2.828125 0.109375 2.253906 0.0234375 1.703125 -0.140625 C 1.148438 -0.304688 0.710938 -0.53125 0.390625 -0.8125 L 0.875 -1.921875 C 1.195312 -1.671875 1.585938 -1.46875 2.046875 -1.3125 C 2.503906 -1.15625 2.960938 -1.078125 3.421875 -1.078125 C 3.992188 -1.078125 4.421875 -1.164062 4.703125 -1.34375 C 4.992188 -1.53125 5.140625 -1.773438 5.140625 -2.078125 C 5.140625 -2.296875 5.054688 -2.476562 4.890625 -2.625 C 4.734375 -2.769531 4.535156 -2.878906 4.296875 -2.953125 C 4.054688 -3.035156 3.726562 -3.128906 3.3125 -3.234375 C 2.71875 -3.378906 2.238281 -3.519531 1.875 -3.65625 C 1.507812 -3.789062 1.195312 -4.007812 0.9375 -4.3125 C 0.675781 -4.613281 0.546875 -5.015625 0.546875 -5.515625 C 0.546875 -5.941406 0.660156 -6.328125 0.890625 -6.671875 C 1.128906 -7.023438 1.476562 -7.304688 1.9375 -7.515625 C 2.40625 -7.722656 2.976562 -7.828125 3.65625 -7.828125 C 4.125 -7.828125 4.585938 -7.765625 5.046875 -7.640625 C 5.503906 -7.523438 5.894531 -7.359375 6.21875 -7.140625 L 5.765625 -6.03125 C 5.429688 -6.226562 5.078125 -6.375 4.703125 -6.46875 C 4.335938 -6.570312 3.984375 -6.625 3.640625 -6.625 C 3.078125 -6.625 2.65625 -6.53125 2.375 -6.34375 C 2.101562 -6.15625 1.96875 -5.898438 1.96875 -5.578125 C 1.96875 -5.359375 2.046875 -5.175781 2.203125 -5.03125 C 2.367188 -4.894531 2.570312 -4.785156 2.8125 -4.703125 C 3.050781 -4.628906 3.378906 -4.539062 3.796875 -4.4375 C 4.367188 -4.300781 4.835938 -4.160156 5.203125 -4.015625 C 5.578125 -3.878906 5.894531 -3.664062 6.15625 -3.375 C 6.414062 -3.082031 6.546875 -2.6875 6.546875 -2.1875 C 6.546875 -1.757812 6.425781 -1.367188 6.1875 -1.015625 C 5.957031 -0.671875 5.609375 -0.394531 5.140625 -0.1875 C 4.671875 0.0078125 4.097656 0.109375 3.421875 0.109375 Z M 3.421875 0.109375 "/></g></g></g><g fill="#e4863f" fill-opacity="1"><g transform="translate(109.621758, 276.634055)"><g><path d="M 1.03125 -7.71875 L 4.40625 -7.71875 C 5.226562 -7.71875 5.957031 -7.554688 6.59375 -7.234375 C 7.238281 -6.910156 7.734375 -6.457031 8.078125 -5.875 C 8.429688 -5.289062 8.609375 -4.617188 8.609375 -3.859375 C 8.609375 -3.085938 8.429688 -2.410156 8.078125 -1.828125 C 7.734375 -1.242188 7.238281 -0.789062 6.59375 -0.46875 C 5.957031 -0.15625 5.226562 0 4.40625 0 L 1.03125 0 Z M 4.34375 -1.21875 C 4.90625 -1.21875 5.398438 -1.320312 5.828125 -1.53125 C 6.265625 -1.75 6.597656 -2.054688 6.828125 -2.453125 C 7.054688 -2.859375 7.171875 -3.328125 7.171875 -3.859375 C 7.171875 -4.390625 7.054688 -4.851562 6.828125 -5.25 C 6.597656 -5.644531 6.265625 -5.953125 5.828125 -6.171875 C 5.398438 -6.390625 4.90625 -6.5 4.34375 -6.5 L 2.46875 -6.5 L 2.46875 -1.21875 Z M 4.34375 -1.21875 "/></g></g></g><g fill="#e4863f" fill-opacity="1"><g transform="translate(127.521762, 276.634055)"><g><path d="M 4.640625 0.109375 C 3.847656 0.109375 3.132812 -0.0625 2.5 -0.40625 C 1.875 -0.75 1.378906 -1.222656 1.015625 -1.828125 C 0.660156 -2.429688 0.484375 -3.109375 0.484375 -3.859375 C 0.484375 -4.609375 0.660156 -5.285156 1.015625 -5.890625 C 1.378906 -6.492188 1.875 -6.96875 2.5 -7.3125 C 3.132812 -7.65625 3.847656 -7.828125 4.640625 -7.828125 C 5.421875 -7.828125 6.128906 -7.65625 6.765625 -7.3125 C 7.398438 -6.96875 7.894531 -6.492188 8.25 -5.890625 C 8.613281 -5.285156 8.796875 -4.609375 8.796875 -3.859375 C 8.796875 -3.097656 8.613281 -2.414062 8.25 -1.8125 C 7.894531 -1.21875 7.398438 -0.75 6.765625 -0.40625 C 6.128906 -0.0625 5.421875 0.109375 4.640625 0.109375 Z M 4.640625 -1.140625 C 5.148438 -1.140625 5.609375 -1.253906 6.015625 -1.484375 C 6.429688 -1.722656 6.753906 -2.046875 6.984375 -2.453125 C 7.222656 -2.867188 7.34375 -3.335938 7.34375 -3.859375 C 7.34375 -4.367188 7.222656 -4.832031 6.984375 -5.25 C 6.753906 -5.664062 6.429688 -5.988281 6.015625 -6.21875 C 5.609375 -6.445312 5.148438 -6.5625 4.640625 -6.5625 C 4.117188 -6.5625 3.648438 -6.445312 3.234375 -6.21875 C 2.828125 -5.988281 2.503906 -5.664062 2.265625 -5.25 C 2.035156 -4.832031 1.921875 -4.367188 1.921875 -3.859375 C 1.921875 -3.335938 2.035156 -2.867188 2.265625 -2.453125 C 2.503906 -2.046875 2.828125 -1.722656 3.234375 -1.484375 C 3.648438 -1.253906 4.117188 -1.140625 4.640625 -1.140625 Z M 4.640625 -1.140625 "/></g></g></g><g fill="#e4863f" fill-opacity="1"><g transform="translate(145.597821, 276.634055)"><g><path d="M 8.125 0 L 8.109375 -5.109375 L 5.578125 -0.875 L 4.9375 -0.875 L 2.40625 -5.046875 L 2.40625 0 L 1.03125 0 L 1.03125 -7.71875 L 2.21875 -7.71875 L 5.28125 -2.59375 L 8.28125 -7.71875 L 9.46875 -7.71875 L 9.46875 0 Z M 8.125 0 "/></g></g></g><g fill="#e4863f" fill-opacity="1"><g transform="translate(164.917318, 276.634055)"><g><path d="M 6.8125 -1.203125 L 6.8125 0 L 1.03125 0 L 1.03125 -7.71875 L 6.671875 -7.71875 L 6.671875 -6.515625 L 2.46875 -6.515625 L 2.46875 -4.5 L 6.1875 -4.5 L 6.1875 -3.328125 L 2.46875 -3.328125 L 2.46875 -1.203125 Z M 6.8125 -1.203125 "/></g></g></g><g fill="#e4863f" fill-opacity="1"><g transform="translate(181.100716, 276.634055)"><g><path d="M 3.421875 0.109375 C 2.828125 0.109375 2.253906 0.0234375 1.703125 -0.140625 C 1.148438 -0.304688 0.710938 -0.53125 0.390625 -0.8125 L 0.875 -1.921875 C 1.195312 -1.671875 1.585938 -1.46875 2.046875 -1.3125 C 2.503906 -1.15625 2.960938 -1.078125 3.421875 -1.078125 C 3.992188 -1.078125 4.421875 -1.164062 4.703125 -1.34375 C 4.992188 -1.53125 5.140625 -1.773438 5.140625 -2.078125 C 5.140625 -2.296875 5.054688 -2.476562 4.890625 -2.625 C 4.734375 -2.769531 4.535156 -2.878906 4.296875 -2.953125 C 4.054688 -3.035156 3.726562 -3.128906 3.3125 -3.234375 C 2.71875 -3.378906 2.238281 -3.519531 1.875 -3.65625 C 1.507812 -3.789062 1.195312 -4.007812 0.9375 -4.3125 C 0.675781 -4.613281 0.546875 -5.015625 0.546875 -5.515625 C 0.546875 -5.941406 0.660156 -6.328125 0.890625 -6.671875 C 1.128906 -7.023438 1.476562 -7.304688 1.9375 -7.515625 C 2.40625 -7.722656 2.976562 -7.828125 3.65625 -7.828125 C 4.125 -7.828125 4.585938 -7.765625 5.046875 -7.640625 C 5.503906 -7.523438 5.894531 -7.359375 6.21875 -7.140625 L 5.765625 -6.03125 C 5.429688 -6.226562 5.078125 -6.375 4.703125 -6.46875 C 4.335938 -6.570312 3.984375 -6.625 3.640625 -6.625 C 3.078125 -6.625 2.65625 -6.53125 2.375 -6.34375 C 2.101562 -6.15625 1.96875 -5.898438 1.96875 -5.578125 C 1.96875 -5.359375 2.046875 -5.175781 2.203125 -5.03125 C 2.367188 -4.894531 2.570312 -4.785156 2.8125 -4.703125 C 3.050781 -4.628906 3.378906 -4.539062 3.796875 -4.4375 C 4.367188 -4.300781 4.835938 -4.160156 5.203125 -4.015625 C 5.578125 -3.878906 5.894531 -3.664062 6.15625 -3.375 C 6.414062 -3.082031 6.546875 -2.6875 6.546875 -2.1875 C 6.546875 -1.757812 6.425781 -1.367188 6.1875 -1.015625 C 5.957031 -0.671875 5.609375 -0.394531 5.140625 -0.1875 C 4.671875 0.0078125 4.097656 0.109375 3.421875 0.109375 Z M 3.421875 0.109375 "/></g></g></g><g fill="#e4863f" fill-opacity="1"><g transform="translate(196.832954, 276.634055)"><g><path d="M 2.59375 -6.5 L 0.046875 -6.5 L 0.046875 -7.71875 L 6.59375 -7.71875 L 6.59375 -6.5 L 4.03125 -6.5 L 4.03125 0 L 2.59375 0 Z M 2.59375 -6.5 "/></g></g></g><g fill="#e4863f" fill-opacity="1"><g transform="translate(212.268091, 276.634055)"><g><path d="M 1.03125 -7.71875 L 2.46875 -7.71875 L 2.46875 0 L 1.03125 0 Z M 1.03125 -7.71875 "/></g></g></g><g fill="#e4863f" fill-opacity="1"><g transform="translate(224.589132, 276.634055)"><g><path d="M 4.609375 0.109375 C 3.828125 0.109375 3.117188 -0.0625 2.484375 -0.40625 C 1.859375 -0.75 1.367188 -1.21875 1.015625 -1.8125 C 0.660156 -2.414062 0.484375 -3.097656 0.484375 -3.859375 C 0.484375 -4.609375 0.660156 -5.285156 1.015625 -5.890625 C 1.378906 -6.492188 1.875 -6.96875 2.5 -7.3125 C 3.132812 -7.65625 3.835938 -7.828125 4.609375 -7.828125 C 5.242188 -7.828125 5.820312 -7.710938 6.34375 -7.484375 C 6.863281 -7.265625 7.304688 -6.945312 7.671875 -6.53125 L 6.734375 -5.65625 C 6.179688 -6.257812 5.5 -6.5625 4.6875 -6.5625 C 4.15625 -6.5625 3.675781 -6.445312 3.25 -6.21875 C 2.832031 -5.988281 2.503906 -5.664062 2.265625 -5.25 C 2.035156 -4.84375 1.921875 -4.378906 1.921875 -3.859375 C 1.921875 -3.335938 2.035156 -2.867188 2.265625 -2.453125 C 2.503906 -2.046875 2.832031 -1.722656 3.25 -1.484375 C 3.675781 -1.253906 4.15625 -1.140625 4.6875 -1.140625 C 5.5 -1.140625 6.179688 -1.445312 6.734375 -2.0625 L 7.671875 -1.171875 C 7.304688 -0.753906 6.859375 -0.4375 6.328125 -0.21875 C 5.804688 0 5.234375 0.109375 4.609375 0.109375 Z M 4.609375 0.109375 "/></g></g></g><g fill="#e4863f" fill-opacity="1"><g transform="translate(241.399746, 276.634055)"><g><path d="M 6.03125 -1.78125 L 2.1875 -1.78125 L 1.421875 0 L -0.0625 0 L 3.421875 -7.71875 L 4.828125 -7.71875 L 8.3125 0 L 6.8125 0 Z M 5.5625 -2.90625 L 4.109375 -6.28125 L 2.671875 -2.90625 Z M 5.5625 -2.90625 "/></g></g></g><g fill="#e4863f" fill-opacity="1"><g transform="translate(258.452449, 276.634055)"><g><path d="M 3.421875 0.109375 C 2.828125 0.109375 2.253906 0.0234375 1.703125 -0.140625 C 1.148438 -0.304688 0.710938 -0.53125 0.390625 -0.8125 L 0.875 -1.921875 C 1.195312 -1.671875 1.585938 -1.46875 2.046875 -1.3125 C 2.503906 -1.15625 2.960938 -1.078125 3.421875 -1.078125 C 3.992188 -1.078125 4.421875 -1.164062 4.703125 -1.34375 C 4.992188 -1.53125 5.140625 -1.773438 5.140625 -2.078125 C 5.140625 -2.296875 5.054688 -2.476562 4.890625 -2.625 C 4.734375 -2.769531 4.535156 -2.878906 4.296875 -2.953125 C 4.054688 -3.035156 3.726562 -3.128906 3.3125 -3.234375 C 2.71875 -3.378906 2.238281 -3.519531 1.875 -3.65625 C 1.507812 -3.789062 1.195312 -4.007812 0.9375 -4.3125 C 0.675781 -4.613281 0.546875 -5.015625 0.546875 -5.515625 C 0.546875 -5.941406 0.660156 -6.328125 0.890625 -6.671875 C 1.128906 -7.023438 1.476562 -7.304688 1.9375 -7.515625 C 2.40625 -7.722656 2.976562 -7.828125 3.65625 -7.828125 C 4.125 -7.828125 4.585938 -7.765625 5.046875 -7.640625 C 5.503906 -7.523438 5.894531 -7.359375 6.21875 -7.140625 L 5.765625 -6.03125 C 5.429688 -6.226562 5.078125 -6.375 4.703125 -6.46875 C 4.335938 -6.570312 3.984375 -6.625 3.640625 -6.625 C 3.078125 -6.625 2.65625 -6.53125 2.375 -6.34375 C 2.101562 -6.15625 1.96875 -5.898438 1.96875 -5.578125 C 1.96875 -5.359375 2.046875 -5.175781 2.203125 -5.03125 C 2.367188 -4.894531 2.570312 -4.785156 2.8125 -4.703125 C 3.050781 -4.628906 3.378906 -4.539062 3.796875 -4.4375 C 4.367188 -4.300781 4.835938 -4.160156 5.203125 -4.015625 C 5.578125 -3.878906 5.894531 -3.664062 6.15625 -3.375 C 6.414062 -3.082031 6.546875 -2.6875 6.546875 -2.1875 C 6.546875 -1.757812 6.425781 -1.367188 6.1875 -1.015625 C 5.957031 -0.671875 5.609375 -0.394531 5.140625 -0.1875 C 4.671875 0.0078125 4.097656 0.109375 3.421875 0.109375 Z M 3.421875 0.109375 "/></g></g></g><path fill="#f57f25" d="M 127.929688 129.570312 C 120.714844 129.570312 114.867188 135.429688 114.867188 142.65625 C 114.867188 147.460938 117.445312 151.65625 121.289062 153.9375 L 121.289062 188.507812 L 134.566406 188.507812 L 134.566406 153.9375 C 138.414062 151.65625 140.992188 147.460938 140.992188 142.65625 C 140.992188 135.429688 135.144531 129.570312 127.929688 129.570312 Z M 135.921875 147.25 L 127.929688 151.871094 L 119.9375 147.25 L 119.9375 137.996094 L 127.929688 133.375 L 135.921875 137.996094 L 135.921875 147.25 " fill-opacity="1" fill-rule="nonzero"/><g clip-path="url(#4933475a27)"><path fill="#f57f25" d="M 278.917969 196.789062 L 241.617188 196.789062 L 187.472656 167.730469 L 133.324219 196.789062 L 96.019531 196.789062 L 187.472656 147.714844 L 278.917969 196.789062 " fill-opacity="1" fill-rule="nonzero"/></g><path fill="#f57f25" d="M 181.269531 182.351562 C 182.597656 181.023438 184.433594 180.203125 186.457031 180.203125 L 186.457031 187.558594 L 179.117188 187.558594 C 179.117188 186.296875 179.433594 185.113281 179.988281 184.074219 C 180.328125 183.4375 180.757812 182.863281 181.269531 182.351562 " fill-opacity="1" fill-rule="nonzero"/><g clip-path="url(#2bea5dac95)"><path fill="#f57f25" d="M 179.140625 189.457031 L 186.457031 189.457031 L 186.457031 196.789062 L 179.140625 196.789062 L 179.140625 189.457031 " fill-opacity="1" fill-rule="nonzero"/></g><path fill="#f57f25" d="M 195.828125 187.558594 L 188.488281 187.558594 L 188.488281 180.203125 C 190.515625 180.203125 192.355469 181.023438 193.679688 182.351562 C 194.1875 182.863281 194.617188 183.4375 194.957031 184.074219 C 195.511719 185.113281 195.828125 186.296875 195.828125 187.558594 " fill-opacity="1" fill-rule="nonzero"/><g clip-path="url(#d7784d3269)"><path fill="#f57f25" d="M 188.488281 189.457031 L 195.804688 189.457031 L 195.804688 196.789062 L 188.488281 196.789062 L 188.488281 189.457031 " fill-opacity="1" fill-rule="nonzero"/></g><path fill="#f57f25" d="M 203.027344 139.632812 L 206.660156 139.632812 C 206.664062 139.804688 206.664062 139.976562 206.664062 140.152344 C 206.664062 140.78125 206.671875 141.460938 206.664062 142.179688 C 206.652344 142.898438 206.644531 143.660156 206.636719 144.445312 C 206.617188 145.226562 206.601562 146.039062 206.582031 146.863281 C 206.554688 147.6875 206.523438 148.523438 206.496094 149.363281 C 206.472656 150.199219 206.429688 151.035156 206.386719 151.859375 C 206.347656 152.683594 206.308594 153.496094 206.253906 154.28125 C 206.160156 155.847656 206.039062 157.3125 205.925781 158.570312 C 205.808594 159.824219 205.695312 160.871094 205.605469 161.605469 C 205.515625 162.335938 205.449219 162.753906 205.449219 162.753906 C 205.398438 163.117188 205.390625 163.511719 205.449219 163.890625 C 205.761719 165.945312 207.671875 167.359375 209.710938 167.046875 C 211.753906 166.730469 213.160156 164.8125 212.84375 162.753906 C 212.84375 162.753906 212.78125 162.335938 212.691406 161.605469 C 212.601562 160.871094 212.484375 159.824219 212.371094 158.570312 C 212.257812 157.3125 212.140625 155.847656 212.042969 154.28125 C 211.988281 153.496094 211.949219 152.683594 211.90625 151.859375 C 211.867188 151.035156 211.824219 150.199219 211.800781 149.363281 C 211.769531 148.523438 211.742188 147.6875 211.714844 146.863281 C 211.695312 146.039062 211.675781 145.226562 211.660156 144.445312 C 211.652344 143.660156 211.640625 142.898438 211.632812 142.179688 C 211.625 141.460938 211.632812 140.78125 211.632812 140.152344 C 211.632812 139.976562 211.632812 139.804688 211.636719 139.632812 L 215.28125 139.632812 C 218.515625 139.632812 221.140625 137.003906 221.140625 133.761719 L 221.140625 132.300781 L 197.160156 132.300781 L 197.160156 133.726562 C 197.160156 136.992188 199.785156 139.632812 203.027344 139.632812 " fill-opacity="1" fill-rule="nonzero"/><path fill="#f57f25" d="M 221.140625 115.605469 L 219.289062 115.605469 L 218.199219 119.828125 L 217.523438 115.605469 L 216.769531 115.605469 L 216.347656 117.714844 L 215.84375 115.605469 L 211.640625 115.605469 L 210.96875 121.007812 L 210.382812 115.605469 L 209.148438 115.605469 L 208.363281 121.007812 L 207.945312 115.605469 L 205.257812 115.605469 L 204.75 118.304688 L 204.164062 115.605469 L 202.480469 115.605469 L 200.96875 123.207031 L 199.117188 115.605469 L 197.160156 115.605469 L 197.160156 130.808594 L 221.140625 130.808594 L 221.140625 115.605469 " fill-opacity="1" fill-rule="nonzero"/><path fill="#f57f25" d="M 187.957031 130.601562 C 187.617188 130.261719 172.691406 115.484375 172.367188 126.367188 L 172.367188 170.859375 L 162.339844 170.859375 L 162.339844 127.503906 C 162.339844 126.59375 162.070312 125.699219 161.554688 124.949219 C 160.378906 123.238281 157.871094 120.949219 153.921875 123.945312 C 153.238281 124.464844 152.464844 124.769531 151.660156 124.816406 L 148.433594 125.011719 C 147.925781 125.042969 147.472656 124.667969 147.296875 124.085938 C 146.738281 122.222656 145.792969 117.992188 147.261719 114.230469 C 147.453125 113.738281 147.863281 113.425781 148.3125 113.429688 C 150.5 113.453125 157.351562 113.429688 160.464844 112.257812 C 164.199219 110.851562 181.1875 110.542969 187.957031 130.601562 " fill-opacity="1" fill-rule="nonzero"/><path fill="#f57f25" d="M 271.671875 125.125 L 271.671875 130.234375 C 271.671875 132.503906 269.839844 134.339844 267.578125 134.339844 L 236.207031 134.339844 C 233.945312 134.339844 232.113281 132.503906 232.113281 130.234375 L 232.113281 125.136719 C 232.113281 122.871094 233.945312 121.035156 236.207031 121.035156 L 267.582031 121.035156 C 269.839844 121.035156 271.671875 122.863281 271.671875 125.125 " fill-opacity="1" fill-rule="nonzero"/><path fill="#f57f25" d="M 253.246094 165.5625 L 250.539062 165.5625 L 250.539062 156.589844 C 250.539062 155.996094 250.242188 155.441406 249.746094 155.109375 L 228.574219 140.910156 C 227.226562 140.003906 226.421875 138.496094 226.421875 136.875 L 226.421875 130.246094 C 226.421875 128.082031 228.171875 126.328125 230.332031 126.328125 L 242.140625 126.328125 L 242.140625 129.042969 L 230.425781 129.042969 C 229.789062 129.042969 229.269531 129.566406 229.269531 130.203125 L 229.269531 136.824219 C 229.269531 137.527344 229.613281 138.183594 230.195312 138.574219 L 251.246094 152.796875 C 252.5 153.644531 253.246094 155.058594 253.246094 156.578125 L 253.246094 165.5625 " fill-opacity="1" fill-rule="nonzero"/><path fill="#f57f25" d="M 251.960938 193.851562 C 249.679688 193.851562 247.828125 192 247.828125 189.710938 L 247.828125 163.027344 C 247.828125 160.738281 249.679688 158.886719 251.960938 158.886719 C 254.242188 158.886719 256.09375 160.738281 256.09375 163.027344 L 256.09375 189.710938 C 256.09375 192 254.242188 193.851562 251.960938 193.851562 " fill-opacity="1" fill-rule="nonzero"/></svg>